<svg width="20" height="19" viewBox="0 0 20 19" fill="none" xmlns="http://www.w3.org/2000/svg">
<g clip-path="url(#clip0_100_132)">
<path d="M8.79514 1.73398C9.00694 1.31914 8.84722 0.809373 8.44097 0.59492C8.03472 0.380467 7.52778 0.542185 7.31597 0.953513L4.08333 7.25H1.11111C0.496528 7.25 0 7.75273 0 8.375C0 8.99726 0.496528 9.5 1.11111 9.5L2.91319 16.7949C3.15972 17.7969 4.04861 18.5 5.06944 18.5H14.9306C15.9514 18.5 16.8403 17.7969 17.0868 16.7949L18.8889 9.5C19.5035 9.5 20 8.99726 20 8.375C20 7.75273 19.5035 7.25 18.8889 7.25H15.9167L12.684 0.953513C12.4722 0.542185 11.9688 0.380467 11.559 0.59492C11.1493 0.809373 10.9931 1.31914 11.2049 1.73398L14.0382 7.25H5.96181L8.79514 1.73398ZM6.66667 11.1875V14.5625C6.66667 14.8719 6.41667 15.125 6.11111 15.125C5.80556 15.125 5.55556 14.8719 5.55556 14.5625V11.1875C5.55556 10.8781 5.80556 10.625 6.11111 10.625C6.41667 10.625 6.66667 10.8781 6.66667 11.1875ZM10 10.625C10.3056 10.625 10.5556 10.8781 10.5556 11.1875V14.5625C10.5556 14.8719 10.3056 15.125 10 15.125C9.69444 15.125 9.44444 14.8719 9.44444 14.5625V11.1875C9.44444 10.8781 9.69444 10.625 10 10.625ZM14.4444 11.1875V14.5625C14.4444 14.8719 14.1944 15.125 13.8889 15.125C13.5833 15.125 13.3333 14.8719 13.3333 14.5625V11.1875C13.3333 10.8781 13.5833 10.625 13.8889 10.625C14.1944 10.625 14.4444 10.8781 14.4444 11.1875Z" fill="#0F172A"/>
</g>
<defs>
<clipPath id="clip0_100_132">
<rect width="20" height="18" fill="white" transform="translate(0 0.5)"/>
</clipPath>
</defs>
</svg>
