<svg width="165" height="159" viewBox="0 0 165 159" fill="none" xmlns="http://www.w3.org/2000/svg">
<mask id="mask0_100_63" style="mask-type:luminance" maskUnits="userSpaceOnUse" x="0" y="-6" width="165" height="165">
<path d="M15.5462 -5.45221L163.789 9.54622L148.791 157.789L0.547765 142.791L15.5462 -5.45221Z" fill="white" stroke="white"/>
</mask>
<g mask="url(#mask0_100_63)">
<mask id="mask1_100_63" style="mask-type:luminance" maskUnits="userSpaceOnUse" x="69" y="32" width="42" height="78">
<path d="M77.5387 33.5391L109.799 36.8031L102.516 108.792L70.2552 105.528L77.5387 33.5391Z" fill="white" stroke="white"/>
</mask>
<g mask="url(#mask1_100_63)">
<path d="M86.5195 100.303C87.5657 101.765 101.357 99.9989 101.894 99.8094L101.483 88.9142M84.3556 71.882L84.9833 65.6785C85.0246 64.3017 87.5871 58.8643 87.8337 57.5772C88.0808 56.2905 89.2492 40.6066 89.2607 40.2802C89.2719 39.9538 88.7576 39.9889 88.8258 39.3151C88.894 38.6415 89.1878 37.2306 88.7062 37.1819C88.2245 37.1331 88.752 36.1816 88.9392 35.6941C89.1261 35.2067 94.9472 35.2921 95.1028 35.5909C95.258 35.8897 95.4993 36.1426 95.1203 37.1317C94.7413 38.1208 95.3173 38.1802 95.2072 40.0915C95.0967 42.0029 97.1592 56.4465 97.5477 57.4236C97.9358 58.4006 100.398 63.1362 100.398 63.1362L100.761 70.2239" stroke="#0F172A" stroke-width="5"/>
<path d="M91.9838 48.1381C91.9838 48.1381 94.2478 48.3672 96.0853 48.1845" stroke="#0F172A" stroke-width="5" stroke-linecap="round"/>
<path d="M90.4295 40.1693C91.9923 40.2238 93.556 40.1238 95.0976 39.8708" stroke="#0F172A" stroke-width="3" stroke-linecap="round"/>
<path d="M88.9534 37.507C89.7 37.6192 91.5767 37.4061 91.5767 37.4061" stroke="#0F172A" stroke-width="3" stroke-linecap="round"/>
<path d="M93.8308 37.2632C94.1487 37.332 94.976 37.0128 94.976 37.0128" stroke="#0F172A" stroke-width="3" stroke-linecap="round"/>
<path d="M70.668 103.861C70.0248 103.795 77.3266 90.0618 77.1991 89.2023C77.0712 88.3429 82.1051 74.2403 82.9641 73.0483C83.823 71.8564 84.912 71.8667 85.2436 72.2368C85.3949 72.4059 85.3012 73.1502 85.3536 74.3044C85.357 75.1015 85.4035 75.8981 85.4925 76.6907C86.0442 76.3934 90.5237 72.9007 95.5965 71.065C98.1554 70.1411 102.605 70.1703 103.439 70.5163C105.925 71.5468 103.779 73.7043 102.929 74.1188C103.055 74.5391 104.58 74.1656 104.819 76.1939C105.18 78.2654 104.011 78.0333 103.396 78.9616C103.019 79.5092 104.678 80.0935 104.863 81.0828C105.049 82.0721 104.57 82.2649 103.652 83.6525C103.621 83.6834 104.827 84.5433 104.635 85.5367C104.28 87.4736 101.891 88.9853 101.891 88.9853C101.891 88.9853 94.6832 94.3673 93.4361 95.186C92.1893 96.0048 88.2546 97.4182 87.1199 98.1876C85.9852 98.9567 84.4012 108.376 84.1921 108.547" stroke="#0F172A" stroke-width="5" stroke-linecap="round"/>
<path d="M91.6907 76.8636C91.8729 77.1154 91.5358 78.3948 91.5358 78.3948" stroke="#0F172A" stroke-width="2" stroke-linecap="round"/>
<path d="M94.7884 83.1429C94.7884 83.1429 95.9506 82.5745 95.7513 80.9611" stroke="#0F172A" stroke-width="2" stroke-linecap="round"/>
<path d="M96.3876 86.5552C96.2957 87.2436 95.9366 87.8691 95.3863 88.3008" stroke="#0F172A" stroke-width="2" stroke-linecap="round"/>
<path d="M101.244 96.8162C99.0249 97.2215 92.8273 97.0727 92.8273 97.0727" stroke="#0F172A" stroke-width="5" stroke-linecap="round"/>
<path d="M102.949 74.1605C99.7511 73.7743 96.3886 77.0314 93.866 76.244" stroke="#0F172A" stroke-width="4" stroke-linecap="round"/>
<path d="M103.507 78.6573C101.733 79.9592 98.6221 80.8954 98.6221 80.8954" stroke="#0F172A" stroke-width="3" stroke-linecap="round"/>
<path d="M103.554 83.5465C102.532 84.6549 98.7993 86.1437 98.7993 86.1437" stroke="#0F172A" stroke-width="3" stroke-linecap="round"/>
</g>
<path d="M40.2798 90.8137L40.8154 90.2873L40.8712 90.394L41.1007 90.8324L41.5414 90.6075L42.2421 90.2501L40.7734 91.7565L40.2798 90.8137ZM46.0501 86.3444L43.139 89.3301L43.0957 89.2474L42.6805 88.4541L44.5784 86.5887L44.842 86.3296L44.6717 86.0017L44.6423 85.9452L44.4741 85.6212L44.1143 85.6828L41.4669 86.1356L41.0364 85.3133L41.0124 85.2673L45.163 84.6493L46.0501 86.3444ZM38.8119 86.4599L38.8743 86.579L38.1299 86.7063L37.6394 85.7694L39.6363 85.4721L39.0277 85.7826L38.5776 86.0122L38.8119 86.4599ZM40.3799 86.2154L40.4309 86.3128L40.067 86.375L40.3799 86.2154ZM41.076 88.629L40.3977 87.333L40.9183 87.2439L41.4506 88.2608L41.076 88.629ZM41.9352 89.1867L41.9754 89.2635L41.7293 89.3891L41.9352 89.1867Z" fill="#0F172A" stroke="#0F172A"/>
<path d="M50.9392 94.1702L51.5467 94.9046L45.9556 99.4145L45.3484 98.6801L50.9392 94.1702Z" fill="#0F172A" stroke="#0F172A"/>
<path d="M51.224 103.6L50.4898 104.443L49.9105 103.954L54.6088 98.5228L55.3374 99.1377L53.2161 101.59L53.0769 101.473L52.7537 101.844L51.224 103.6ZM53.4638 102.832L55.9564 102.336L56.6521 102.923L54.9558 103.23L55.0229 102.716L54.3869 102.789L53.4027 102.903L53.4638 102.832ZM52.6497 106.265L52.9563 104.2L53.2287 104.153L53.4446 104.335L53.6244 104.486L53.7873 104.457L53.462 106.951L52.6497 106.265Z" fill="#0F172A" stroke="#0F172A"/>
<path d="M60.0901 108.808L60.09 108.808C59.8285 109.304 59.7076 109.77 59.7059 110.211C59.7076 110.649 59.824 111.045 60.0573 111.41C60.2903 111.767 60.6484 112.083 61.1601 112.346L60.0901 108.808ZM60.0901 108.808C60.353 108.308 60.6708 107.942 61.035 107.689C61.4034 107.435 61.8013 107.302 62.2379 107.284L62.2391 107.284M60.0901 108.808L62.2391 107.284M62.2391 107.284C62.6727 107.264 63.1417 107.372 63.6531 107.635L63.6532 107.635M62.2391 107.284L63.6532 107.635M63.6532 107.635C64.1652 107.898 64.5208 108.215 64.7502 108.572L64.7502 108.572M63.6532 107.635L64.7502 108.572M64.7502 108.572L64.7518 108.575M64.7502 108.572L64.7518 108.575M64.7518 108.575C64.9877 108.938 65.1038 109.332 65.1024 109.77L65.1024 109.77M64.7518 108.575L65.1024 109.77M65.1024 109.77L65.1024 109.774M65.1024 109.77L65.1024 109.774M65.1024 109.774C65.1038 110.212 64.9845 110.678 64.7217 111.177C64.4603 111.673 64.1417 112.039 63.7736 112.293L63.7727 112.294M65.1024 109.774L63.7727 112.294M63.7727 112.294C63.4091 112.546 63.0115 112.68 62.5693 112.7M63.7727 112.294L62.5693 112.7M61.4007 111.937L61.4004 111.937C61.0901 111.778 60.8505 111.534 60.7186 111.207L60.7171 111.203L60.7171 111.203C60.5981 110.901 60.5784 110.574 60.6296 110.241L60.6304 110.236L60.6304 110.236C60.6843 109.906 60.8053 109.574 60.9808 109.241L60.9809 109.241C61.1586 108.904 61.3658 108.612 61.6082 108.38L61.6108 108.378L61.6108 108.378C61.8571 108.145 62.1377 107.975 62.4534 107.898L62.4573 107.898L62.4573 107.898C62.8004 107.817 63.137 107.871 63.4472 108.03L61.4007 111.937ZM61.4007 111.937C61.708 112.095 62.0419 112.144 62.3805 112.059C62.6939 111.981 62.9711 111.809 63.2136 111.576L61.4007 111.937ZM62.5693 112.7C62.1397 112.718 61.6724 112.609 61.1601 112.346L62.5693 112.7ZM64.1932 109.716C64.2466 109.385 64.2304 109.06 64.1149 108.759L64.1147 108.759C63.989 108.432 63.755 108.188 63.4473 108.03L64.1932 109.716Z" fill="#0F172A" stroke="#0F172A"/>
<path d="M71.8563 113.671L71.8562 113.671L71.8549 113.676L71.1249 116.587L70.1976 116.36L71.9437 109.398L72.8088 109.61L72.1598 112.197L72.0373 112.686L72.3888 112.771C72.3374 112.815 72.2887 112.862 72.2426 112.913L72.2425 112.913L72.2384 112.918C72.0523 113.129 71.9305 113.388 71.8563 113.671ZM73.2724 112.43C73.4128 112.28 73.5743 112.175 73.7589 112.107C74.0081 112.016 74.307 111.999 74.6753 112.09L74.6753 112.09C75.0211 112.174 75.2772 112.317 75.4669 112.506L75.4668 112.506L75.4693 112.508C75.6625 112.697 75.7924 112.929 75.8586 113.218L75.8586 113.218L75.8594 113.221C75.927 113.507 75.9218 113.836 75.8229 114.222L75.8223 114.224L74.992 117.533L74.0647 117.306L74.7993 114.378C74.7995 114.377 74.7996 114.377 74.7998 114.376C74.9058 113.965 74.8991 113.551 74.702 113.182L74.7017 113.181C74.4985 112.802 74.1497 112.58 73.7398 112.479L73.7394 112.479C73.584 112.441 73.4277 112.424 73.2724 112.43Z" fill="#0F172A" stroke="#0F172A"/>
<path d="M85.1246 118.554L85.1245 118.554C84.7753 118.552 84.452 118.443 84.1859 118.213L84.1828 118.21L84.1828 118.21C83.939 117.995 83.7712 117.714 83.6631 117.393L83.6616 117.389L83.6617 117.389C83.5576 117.071 83.5123 116.72 83.5144 116.344L83.5144 116.344C83.5167 115.963 83.5664 115.609 83.6745 115.292L83.676 115.287L83.676 115.287C83.7877 114.969 83.9584 114.689 84.2057 114.477L84.208 114.475L84.2081 114.475C84.4768 114.248 84.8017 114.142 85.1512 114.145L85.1246 118.554ZM85.1246 118.554C85.4705 118.556 85.7904 118.448 86.0535 118.219L86.0535 118.219M85.1246 118.554L86.0535 118.219M86.0535 118.219C86.297 118.006 86.464 117.726 86.5723 117.409C86.6835 117.091 86.7347 116.74 86.7372 116.364L86.7372 116.363M86.0535 118.219L86.7372 116.363M86.7372 116.363C86.7395 115.982 86.6927 115.627 86.5852 115.307C86.4804 114.988 86.3161 114.707 86.0758 114.491L86.0757 114.491M86.7372 116.363L86.0757 114.491M86.0757 114.491C85.8157 114.259 85.4968 114.147 85.1513 114.145L86.0757 114.491ZM82.5236 116.349L82.5236 116.349C82.5267 115.785 82.6401 115.316 82.8464 114.927C83.0557 114.535 83.3463 114.237 83.7247 114.024L83.7254 114.024C84.1006 113.812 84.5661 113.696 85.1417 113.7C85.7173 113.703 86.1795 113.824 86.5487 114.04L86.5487 114.04L86.5516 114.042C86.9299 114.26 87.2159 114.561 87.4171 114.953L87.4171 114.953L87.4186 114.956C87.6226 115.348 87.7314 115.818 87.7279 116.381L87.7279 116.382C87.7247 116.942 87.6105 117.411 87.4013 117.803L87.4007 117.804C87.1945 118.192 86.9045 118.49 86.5221 118.707C86.1504 118.916 85.6864 119.031 85.1101 119.027C84.5341 119.023 84.07 118.904 83.6971 118.689C83.3208 118.469 83.0338 118.167 82.8294 117.776C82.6274 117.381 82.52 116.91 82.5236 116.349Z" fill="#0F172A" stroke="#0F172A"/>
<path d="M93.8571 111.267L94.7971 111.1L96.0816 118.161L95.1415 118.327L93.8571 111.267Z" fill="#0F172A" stroke="#0F172A"/>
<path d="M101.386 109.968C101.304 110.178 101.304 110.392 101.349 110.591L100.441 110.896C100.355 110.587 100.345 110.335 100.384 110.131L100.385 110.129C100.433 109.873 100.545 109.665 100.721 109.491L100.721 109.491L100.723 109.489C100.909 109.303 101.16 109.149 101.494 109.037C101.728 108.959 101.949 108.905 102.157 108.874L102.157 108.874L102.164 108.873C102.173 108.871 102.183 108.87 102.192 108.868L102.247 109.337C102.194 109.35 102.142 109.365 102.09 109.383C101.831 109.47 101.517 109.633 101.386 109.967L101.386 109.968ZM102.919 111.581L102.757 111.635L102.614 111.222L102.776 111.167L102.919 111.581ZM101.666 111.54L101.808 111.953L100.903 112.257L100.761 111.843L101.666 111.54ZM101.229 113.202L102.134 112.899L103.336 116.393L102.431 116.696L101.229 113.202Z" fill="#0F172A" stroke="#0F172A"/>
<path d="M110.491 107.145C110.407 107.163 110.32 107.19 110.23 107.226C110.14 107.26 110.054 107.298 109.974 107.341C109.678 107.499 109.467 107.726 109.339 108.02C109.32 108.065 109.303 108.111 109.288 108.158L109.673 108.859L109.291 109.069C109.291 109.069 109.291 109.069 109.291 109.07L109.235 109.1L109.226 109.085L108.805 109.185C108.763 109.01 108.738 108.837 108.731 108.668L108.496 108.794M110.491 107.145L110.251 107.277L110.25 107.278L110.053 107.386L110.257 107.758M110.491 107.145L110.597 107.634C110.543 107.646 110.482 107.664 110.416 107.69L110.405 107.695L110.405 107.695C110.351 107.715 110.302 107.736 110.257 107.758M110.491 107.145L110.346 108.463M110.257 107.758C110.241 107.765 110.226 107.773 110.211 107.781L110.21 107.782C110.009 107.889 109.879 108.033 109.798 108.219L109.797 108.221C109.726 108.384 109.7 108.612 109.774 108.938M110.257 107.758L110.582 108.349M109.774 108.938C109.768 108.945 109.763 108.952 109.757 108.96C109.731 108.994 109.706 109.03 109.683 109.067C109.603 109.191 109.541 109.322 109.498 109.459C109.49 109.485 109.483 109.511 109.476 109.538M109.774 108.938C109.775 108.943 109.776 108.949 109.778 108.955L109.826 109.157L110.104 109.337M109.774 108.938C109.927 108.741 110.12 108.584 110.345 108.464M109.476 109.538L109.469 109.541L109.034 109.773L108.796 109.34L108.496 108.794M109.476 109.538C109.445 109.656 109.428 109.778 109.425 109.904L109.425 109.904L109.425 109.906C109.418 110.216 109.504 110.513 109.657 110.791L109.657 110.791L111.016 113.268M109.476 109.538L109.526 109.511L109.866 109.33L109.826 109.16L110.104 109.337M108.496 108.794L108.258 108.36L108.696 108.12M108.496 108.794L107.704 109.218M108.696 108.12L108.758 108.234C108.758 108.233 108.758 108.233 108.758 108.232L108.696 108.12ZM108.696 108.12L107.464 108.779L107.704 109.218M107.704 109.218L110.175 113.718M107.704 109.218L107.263 109.454L109.975 114.392M110.175 113.718L111.308 108.633L111.058 108.177C110.964 108.202 110.866 108.235 110.767 108.274M110.175 113.718L110.413 114.152L109.975 114.392M110.175 113.718L109.739 113.951L109.975 114.392M110.175 113.718L111.016 113.268M110.175 113.718L110.345 108.464M109.975 114.392L111.257 113.706L111.016 113.268M111.016 113.268L111.457 113.032L110.095 110.55C109.977 110.336 109.921 110.125 109.925 109.917C109.931 109.706 109.99 109.512 110.104 109.337M110.104 109.337C110.218 109.158 110.377 109.014 110.581 108.904M110.581 108.904C110.653 108.866 110.734 108.828 110.824 108.79L110.582 108.349M110.581 108.904L110.346 108.463M110.581 108.904L110.345 108.464M110.582 108.349C110.642 108.324 110.703 108.298 110.767 108.274M110.582 108.349C110.498 108.386 110.419 108.424 110.346 108.463M110.767 108.274C110.768 108.274 110.768 108.273 110.768 108.273L110.947 108.74L110.767 108.274C110.767 108.274 110.767 108.274 110.767 108.274ZM110.346 108.463L110.345 108.464" fill="#0F172A" stroke="#0F172A"/>
<path d="M114.29 103.268L114.291 103.268C114.416 103.174 114.476 103.071 114.498 102.942L114.99 103.027M114.29 103.268L113.615 103.226C113.549 103.14 113.524 103.052 113.547 102.923L113.548 102.919C113.571 102.784 113.632 102.681 113.752 102.591C113.876 102.498 113.995 102.467 114.133 102.481L114.133 102.481L114.139 102.482C114.277 102.495 114.359 102.544 114.426 102.63L114.426 102.63C114.495 102.719 114.52 102.811 114.498 102.943L114.99 103.027M114.29 103.268C114.169 103.36 114.049 103.393 113.908 103.38M114.29 103.268L113.908 103.38M114.99 103.027C114.946 103.288 114.813 103.501 114.591 103.668C114.372 103.833 114.128 103.903 113.86 103.878L114.821 102.325C114.979 102.529 115.036 102.763 114.99 103.027ZM113.908 103.38C113.769 103.366 113.684 103.315 113.615 103.226L113.908 103.38ZM118.851 108.408L118.089 108.982L114.951 104.918L115.713 104.344L118.851 108.408Z" fill="#0F172A" stroke="#0F172A"/>
<path d="M125.271 94.8441C125.135 94.9762 125.004 95.1294 124.877 95.3052L124.877 95.3053C124.54 95.7719 124.365 96.2155 124.322 96.6401L124.322 96.6411C124.278 97.0691 124.354 97.4739 124.554 97.8667C124.753 98.256 125.073 98.6164 125.535 98.9417L125.535 98.9418C125.994 99.2651 126.443 99.4473 126.887 99.509C126.902 99.5111 126.918 99.513 126.933 99.5147L126.537 98.4014C126.395 98.326 126.253 98.2383 126.113 98.1396L125.271 94.8441ZM125.271 94.8441L125.445 95.3324M125.271 94.8441L125.445 95.3324M125.445 95.3324C125.377 95.3963 125.315 95.4675 125.259 95.5454M125.445 95.3324L125.259 95.5454M125.259 95.5454C125.054 95.8285 124.951 96.1542 124.982 96.5054L124.982 96.5054L124.983 96.5097C125.014 96.8327 125.145 97.1331 125.343 97.4068L125.343 97.4068L125.344 97.409C125.541 97.6782 125.802 97.9203 126.113 98.1395L125.259 95.5454ZM129.243 98.3678C129.112 98.5495 128.976 98.7075 128.835 98.8434L128.652 98.3264C128.726 98.2571 128.794 98.1796 128.855 98.0947L128.856 98.0944C129.057 97.8161 129.156 97.4956 129.123 97.1498L129.123 97.1498L129.123 97.1453C129.089 96.8237 128.955 96.5265 128.757 96.2564C128.56 95.9838 128.3 95.7405 127.99 95.5221L127.99 95.522C127.85 95.4237 127.709 95.3364 127.567 95.2616L127.178 94.1628C127.196 94.1648 127.215 94.1672 127.233 94.1697L127.236 94.1701C127.677 94.2281 128.127 94.409 128.588 94.7339L128.588 94.7339C129.047 95.0574 129.366 95.4182 129.567 95.8118L129.567 95.8127C129.766 96.2006 129.842 96.6052 129.798 97.0382C129.755 97.4588 129.58 97.9011 129.243 98.3678ZM127.97 99.3956C127.965 99.3975 127.96 99.3993 127.954 99.4012L127.708 98.7079C127.714 98.7077 127.72 98.7075 127.726 98.7072L127.97 99.3956ZM126.771 96.0086L127.357 97.6644C127.354 97.6634 127.35 97.6624 127.347 97.6614C127.342 97.6601 127.338 97.6588 127.334 97.6574L126.744 96.0006C126.747 96.0014 126.749 96.0022 126.752 96.003L126.752 96.0031L126.758 96.0048C126.762 96.0061 126.767 96.0073 126.771 96.0086ZM126.397 94.9527C126.388 94.9529 126.38 94.9532 126.371 94.9536L126.134 94.288C126.142 94.285 126.151 94.282 126.159 94.279L126.397 94.9527ZM128.461 97.7865C128.591 97.6009 128.645 97.4046 128.626 97.1972C128.603 96.9827 128.512 96.7674 128.353 96.5507L128.461 97.7865Z" fill="#0F172A" stroke="#0F172A"/>
<path d="M127.868 86.8781L128.275 86.0163L134.802 89.0201L134.396 89.8817L127.868 86.8781Z" fill="#0F172A" stroke="#0F172A"/>
<path d="M40.9981 73.0236L40.9986 73.0236C41.2343 73.0104 41.436 72.9427 41.615 72.8233C41.8026 72.6955 41.9467 72.5339 42.0523 72.3331C42.1503 72.1423 42.1946 71.9341 42.1809 71.6986L40.9981 73.0236ZM40.9981 73.0236C40.7584 73.0372 40.5504 72.992 40.3624 72.8944C40.161 72.7887 40.0002 72.6442 39.8744 72.4568L39.8744 72.4568M40.9981 73.0236L39.8744 72.4568M39.8744 72.4568L39.8723 72.4538M39.8744 72.4568L39.8723 72.4538M39.8723 72.4538C39.7503 72.2748 39.6814 72.0737 39.6677 71.8393L39.8723 72.4538ZM39.7983 71.208L39.7983 71.208C39.6994 71.3943 39.6538 71.6006 39.6677 71.8391L39.7983 71.208ZM39.7983 71.208L39.8011 71.2025M39.7983 71.208L39.8011 71.2025M39.8011 71.2025C39.9038 71.0031 40.0457 70.844 40.2322 70.7192L40.2323 70.7192M39.8011 71.2025L40.2323 70.7192M40.2323 70.7192L40.2368 70.7161M40.2323 70.7192L40.2368 70.7161M40.2368 70.7161C40.4116 70.5963 40.6119 70.5273 40.8502 70.5137C41.0855 70.5007 41.2937 70.5461 41.4857 70.6467L41.4857 70.6468M40.2368 70.7161L41.4857 70.6468M41.4857 70.6468L41.489 70.6484M41.4857 70.6468L41.489 70.6484M41.489 70.6484C41.6894 70.7516 41.8513 70.8948 41.9798 71.083M41.489 70.6484L41.9798 71.083M41.9798 71.083C42.0982 71.2579 42.1669 71.4591 42.1809 71.6985L41.9798 71.083Z" fill="#0F172A" stroke="#0F172A"/>
<path d="M40.4589 49.8595L41.032 50.065L40.352 51.9168L40.1782 52.3898L40.6526 52.5598L46.3794 54.6123L46.0532 55.5001L40.3191 53.4453L39.8521 53.278L39.6811 53.7436L38.997 55.6063L38.4239 55.4008L40.4589 49.8595Z" fill="#0F172A" stroke="#0F172A"/>
<path d="M47.4094 46.1819L49.8318 47.6513L49.3304 48.4577L44.928 45.7875L45.4 45.0283L45.9355 45.3532L46.3576 45.6091L46.619 45.1905L46.6231 45.1837C46.6563 45.3026 46.7034 45.4182 46.7641 45.5297L46.7641 45.5297L46.7654 45.5319C46.915 45.8032 47.1383 46.0176 47.4094 46.1819ZM46.8387 43.8227C46.7043 44.0389 46.616 44.2714 46.5815 44.5172C46.3524 44.2707 46.2601 44.0595 46.2402 43.8827L46.2402 43.8827L46.2398 43.8794C46.216 43.6793 46.2566 43.4913 46.3764 43.2986L45.9518 43.0346L46.3762 43.2989C46.3852 43.2844 46.3947 43.2699 46.4045 43.2553L46.9854 43.6076C46.9315 43.6806 46.8824 43.7523 46.8387 43.8226L46.8387 43.8227Z" fill="#0F172A" stroke="#0F172A"/>
<path d="M54.874 41.1522C55.0314 41.0366 55.1873 40.8984 55.3416 40.736L54.874 41.1522ZM54.874 41.1522L54.7601 40.6136C54.8423 40.5551 54.9194 40.4876 54.9913 40.412C55.2282 40.1627 55.3688 39.8581 55.3819 39.5116L55.3819 39.5116L55.382 39.5067C55.391 39.1831 55.297 38.8708 55.1366 38.5773C54.9772 38.2809 54.7511 38.0051 54.4725 37.7469L54.4722 37.7466C54.3465 37.6303 54.2182 37.5248 54.0869 37.4314L53.8461 36.2927C53.8632 36.2971 53.8804 36.3018 53.8976 36.3066L53.9008 36.3074C54.3311 36.4245 54.7541 36.6645 55.1689 37.0489L55.1691 37.0491C55.582 37.4314 55.851 37.8322 55.998 38.2491L55.9984 38.2502C56.1445 38.6614 56.1668 39.0724 56.0664 39.495C55.9681 39.9053 55.7372 40.3192 55.3417 40.7359L54.874 41.1522ZM51.8641 36.7088C51.7121 36.8214 51.5614 36.9555 51.4121 37.1128L51.412 37.1129C51.0169 37.5287 50.7856 37.9443 50.6872 38.3587L50.687 38.3595C50.5871 38.7769 50.6089 39.188 50.7557 39.6046C50.9021 40.017 51.1715 40.4171 51.5873 40.8022L51.8641 36.7088ZM51.8641 36.7088L51.9726 37.2173C51.8977 37.2715 51.8272 37.3334 51.7614 37.4027L51.7613 37.4027C51.5208 37.6559 51.3752 37.9648 51.36 38.3179L51.36 38.3179L51.3599 38.3208C51.3479 38.646 51.4389 38.9613 51.5984 39.2584L51.5983 39.2584L51.5998 39.261C51.7594 39.5543 51.9866 39.8288 52.2665 40.088L51.8641 36.7088ZM52.8986 41.5586L52.6524 40.4044C52.5211 40.3106 52.3925 40.2048 52.2666 40.0881L52.8986 41.5586ZM52.8986 41.5586C52.884 41.5549 52.8693 41.551 52.8547 41.5471C52.4228 41.4262 52.0004 41.1846 51.5874 40.8022L52.8986 41.5586ZM53.9267 41.5851L53.7732 40.8654C53.7793 40.866 53.7854 40.8666 53.7915 40.8671L53.9427 41.5817C53.9374 41.5829 53.9321 41.584 53.9267 41.5851ZM52.7941 36.275C52.8024 36.2732 52.8107 36.2713 52.819 36.2695L52.9669 36.9685C52.9584 36.9676 52.9499 36.9668 52.9415 36.966L52.7941 36.275ZM53.5402 39.7727L53.1737 38.0547C53.1757 38.0556 53.1777 38.0565 53.1797 38.0574L53.1797 38.0574L53.1855 38.06C53.19 38.062 53.1945 38.064 53.199 38.066L53.5622 39.7827C53.5595 39.7816 53.5569 39.7804 53.5543 39.7793C53.5496 39.7771 53.5449 39.7749 53.5402 39.7727Z" fill="#0F172A" stroke="#0F172A"/>
<path d="M61.304 37.6265C61.2802 37.6408 61.2551 37.6554 61.2284 37.6703L61.799 38.4682L61.5292 38.0472C61.5895 38.0086 61.6463 37.9723 61.6993 37.9388C61.7449 37.9097 61.7926 37.878 61.8427 37.8429L61.844 37.842C61.8715 37.8228 61.8984 37.8037 61.9248 37.7845M61.304 37.6265L63.4441 36.3119C63.4499 36.6723 63.337 37.0125 63.1056 37.3332C62.8741 37.6539 62.5488 37.9602 62.1299 38.2522C62.0731 38.292 62.0189 38.328 61.9674 38.3609C61.9154 38.3937 61.8594 38.4295 61.799 38.4682L61.9616 38.3519L61.9673 38.3608L61.9617 38.3518L62.1203 38.2385L62.1203 38.2384L62.2057 38.1774L61.9248 37.7845M61.304 37.6265C61.3475 37.6007 61.3882 37.5741 61.4265 37.5475L61.4272 37.547C61.497 37.4984 61.5687 37.4435 61.6369 37.3819M61.304 37.6265L61.6369 37.3819M61.9248 37.7845L61.6369 37.3819M61.9248 37.7845C62.269 37.535 62.5233 37.2857 62.7002 37.0406C62.8751 36.7983 62.948 36.5618 62.9442 36.3199L62.9441 36.3171L62.9441 36.3171C62.9418 36.0916 62.8478 35.8029 62.5897 35.4416M61.6369 37.3819L59.2727 29.9425M61.6369 37.3819C61.807 37.2284 61.9557 37.033 62.0018 36.7878C62.0649 36.4637 61.9431 36.1714 61.7803 35.9433L61.7801 35.943L58.3739 31.1786M61.6369 37.3819L58.3739 31.1786M62.5897 35.4416L62.5898 35.4417L62.9966 35.1509L62.5897 35.4416ZM62.5897 35.4416L59.1533 30.6352M59.1533 30.6352L59.5587 30.3526L59.2727 29.9425M59.1533 30.6352L58.3739 31.1786M59.1533 30.6352L58.866 30.2333L59.2727 29.9425M59.2727 29.9425L58.3739 31.1786M57.0386 29.1283L57.038 29.1314C57.0104 29.2603 57.0319 29.3498 57.0953 29.4385L57.0386 29.1283ZM57.0386 29.1283C57.0664 28.9942 57.1311 28.8939 57.2537 28.8085L56.9677 28.3984L57.2534 28.8087C57.3796 28.7208 57.4989 28.6942 57.6356 28.7141L57.6356 28.7141M57.0386 29.1283L57.6356 28.7141M57.6356 28.7141L57.6425 28.715M57.6356 28.7141L57.6425 28.715M57.6425 28.715C57.7798 28.7331 57.8608 28.7859 57.9246 28.8751L57.9247 28.8753M57.6425 28.715L57.9247 28.8753M57.9247 28.8753C57.9909 28.9678 58.0132 29.0609 57.986 29.1919L57.9247 28.8753ZM57.3839 29.6055C57.5243 29.6235 57.6448 29.5948 57.7686 29.5086L57.3839 29.6055ZM57.3839 29.6055C57.2455 29.5859 57.1618 29.5313 57.0954 29.4386L57.3839 29.6055ZM57.986 29.192C57.9597 29.3187 57.8964 29.4193 57.7687 29.5084L57.986 29.192Z" fill="#0F172A" stroke="#0F172A"/>
<path d="M67.2893 26.552C67.2668 26.6283 67.2499 26.7018 67.2382 26.7727C67.3575 26.6705 67.494 26.5876 67.6436 26.523C67.9547 26.3888 68.2848 26.3503 68.614 26.4404C68.9268 26.5243 69.1959 26.7032 69.4226 26.9446C69.6501 27.183 69.8349 27.4796 69.9854 27.8196C70.1367 28.1606 70.2317 28.4973 70.2557 28.8262C70.2823 29.1569 70.2348 29.4785 70.084 29.7683L70.0823 29.7716L70.0823 29.7716C69.9227 30.0729 69.6698 30.2874 69.359 30.4215L69.3589 30.4216C69.2043 30.4882 69.0453 30.5304 68.884 30.5453C68.953 30.5908 69.0291 30.6323 69.113 30.6695C69.2546 30.7303 69.4166 30.765 69.605 30.7673C69.7687 30.7693 69.9645 30.7303 70.1987 30.6293L70.1987 30.6293C70.53 30.4864 70.7837 30.2767 70.9728 29.9976L70.9737 29.9963C71.1569 29.7275 71.2642 29.3872 71.2729 28.9515L71.273 28.9489C71.2837 28.5274 71.174 28.0257 70.9124 27.4346L70.9124 27.4346C70.6396 26.8183 70.3334 26.3917 70.0105 26.1198L70.0103 26.1197C69.6702 25.8331 69.3408 25.6857 69.0195 25.6432L69.0179 25.643C68.676 25.5967 68.3574 25.6403 68.0516 25.7722L67.2893 26.552ZM67.2893 26.552C67.3332 26.4096 67.4119 26.2671 67.5365 26.1239L67.5365 26.1239L67.5384 26.1218C67.6448 25.9981 67.8079 25.8774 68.0515 25.7723L67.2893 26.552ZM67.8629 31.0066L68.0617 31.4557L67.2064 31.8248L64.296 25.25L65.1698 24.873L66.2238 27.2541L66.4243 27.7071L66.7735 27.5564C66.7334 27.7306 66.7213 27.9124 66.7321 28.0976L66.7321 28.0976L66.7325 28.103C66.7553 28.4321 66.8517 28.7714 67.0043 29.1165L67.0045 29.117C67.1559 29.4581 67.3415 29.7558 67.5697 29.9961L67.5696 29.9961L67.5729 29.9995C67.7191 30.1507 67.8808 30.2776 68.0587 30.3723L67.6581 30.5441L67.8629 31.0066ZM67.3604 27.4032L67.2208 27.327L67.2208 27.3273L67.3604 27.4032Z" fill="#0F172A" stroke="#0F172A"/>
<path d="M75.0521 23.8615L75.0515 23.8621C74.729 24.1496 74.5102 24.5011 74.3908 24.9278C74.2736 25.3512 74.2645 25.8336 74.3833 26.3859L75.0521 23.8615ZM75.0521 23.8615C75.3718 23.5756 75.801 23.3646 76.3639 23.2466L76.364 23.2466M75.0521 23.8615L76.364 23.2466M76.364 23.2466C76.9263 23.1286 77.4041 23.1494 77.8118 23.2829L77.8151 23.2839M76.364 23.2466L77.8151 23.2839M77.8151 23.2839C78.232 23.4172 78.5773 23.6511 78.8595 23.993L78.8595 23.9931M77.8151 23.2839L78.8595 23.9931M78.8595 23.9931L78.8616 23.9955M78.8595 23.9931L78.8616 23.9955M78.8616 23.9955C79.1458 24.3354 79.354 24.7724 79.4727 25.324L79.4727 25.3241M78.8616 23.9955L79.4727 25.3241M79.4727 25.3241C79.5908 25.8727 79.5807 26.3554 79.4615 26.7827L79.4613 26.7832M79.4727 25.3241L79.4613 26.7832M79.4613 26.7832C79.344 27.2057 79.1256 27.5576 78.7999 27.8491C78.4827 28.1317 78.0549 28.3414 77.4914 28.4595C76.9287 28.5775 76.4491 28.5584 76.0383 28.4274M79.4613 26.7832L76.0383 28.4274M78.2349 27.4688L78.2345 27.4694C78.0265 27.7502 77.7367 27.9233 77.3979 27.9943L78.2349 27.4688ZM78.2349 27.4688C78.4264 27.2093 78.5294 26.9002 78.5667 26.5669C78.6063 26.2332 78.5804 25.8791 78.5012 25.5104L78.5011 25.5101M78.2349 27.4688L78.5011 25.5101M78.5011 25.5101C78.4207 25.1368 78.298 24.8003 78.1242 24.5112C77.9533 24.2225 77.733 23.9822 77.4517 23.8227L77.4517 23.8227M78.5011 25.5101L77.4517 23.8227M77.4517 23.8227C77.148 23.6506 76.8132 23.6086 76.4746 23.6795L76.4746 23.6795M77.4517 23.8227L76.4746 23.6795M76.4746 23.6795C76.1326 23.7512 75.8374 23.9224 75.6234 24.2025L75.6233 24.2025M76.4746 23.6795L75.6233 24.2025M75.6233 24.2025L75.6213 24.2052M75.6233 24.2025L75.6213 24.2052M75.6213 24.2052C75.4253 24.4652 75.3191 24.7757 75.2791 25.1106L75.2791 25.1106M75.6213 24.2052L75.2791 25.1106M75.2791 25.1106L75.2786 25.1147M75.2791 25.1106L75.2786 25.1147M75.2786 25.1147C75.2416 25.4481 75.2699 25.8039 75.3496 26.1759L75.3498 26.1766M75.2786 25.1147L75.3498 26.1766M75.3498 26.1766C75.4293 26.5449 75.5497 26.8778 75.7196 27.166L75.7196 27.1661M75.3498 26.1766L75.7196 27.1661M75.7196 27.1661L75.7223 27.1706M75.7196 27.1661L75.7223 27.1706M75.7223 27.1706C75.8969 27.4596 76.1208 27.6991 76.4051 27.8572L76.4051 27.8572M75.7223 27.1706L76.4051 27.8572M76.4051 27.8572L76.4083 27.859M76.4051 27.8572L76.4083 27.859M76.4083 27.859C76.7172 28.0278 77.056 28.066 77.3979 27.9943L76.4083 27.859ZM76.0383 28.4274C75.6224 28.291 75.276 28.0563 74.9916 27.7165C74.7082 27.3728 74.5015 26.9349 74.3833 26.386L76.0383 28.4274Z" fill="#0F172A" stroke="#0F172A"/>
<path d="M86.6895 23.018C86.6872 23.0261 86.6849 23.0343 86.6827 23.0425L86.6287 23.2429L86.2036 24.5973C86.202 24.3524 86.2526 24.1391 86.355 23.9575C86.4603 23.7731 86.6049 23.6298 86.7879 23.5275C86.9738 23.4225 87.1827 23.3692 87.4146 23.3677C87.4961 23.3672 87.5851 23.3711 87.682 23.3795L87.6786 22.8776M86.6895 23.018C86.9153 22.9179 87.158 22.8694 87.4114 22.8677L87.4115 22.8677C87.4965 22.8672 87.5856 22.8706 87.6786 22.8776M86.6895 23.018C86.7792 22.6994 86.9101 22.5105 87.0512 22.3993L87.0512 22.3993L87.0538 22.3972C87.214 22.2691 87.3977 22.2029 87.626 22.2014L87.6261 22.2014C87.6418 22.2013 87.6578 22.2015 87.674 22.202M86.6895 23.018C86.6773 23.0234 86.6652 23.0289 86.6532 23.0346C86.6159 23.0521 86.5791 23.0711 86.5429 23.0916L87.674 22.202M87.6786 22.8776C87.7414 22.8823 87.8061 22.8886 87.8724 22.8965L88.035 22.2509C87.9829 22.2362 87.9218 22.2243 87.8508 22.2169L87.8373 22.2155L87.8374 22.2153C87.7804 22.2078 87.7259 22.2034 87.674 22.202M87.6786 22.8776L87.674 22.202M85.7036 24.6007L85.7232 27.4302L84.7684 27.4364L84.7331 22.304L85.6318 22.2982L85.6362 22.9164L85.6397 23.416L86.1364 23.4128C86.0547 23.5022 85.9827 23.6012 85.9209 23.7094L85.9209 23.7094L85.9195 23.7119C85.7674 23.9815 85.7015 24.2835 85.7036 24.6006L85.7036 24.6007Z" fill="#0F172A" stroke="#0F172A"/>
<path d="M94.0938 28.0348C94.3441 28.0839 94.554 28.0884 94.7299 28.0605L94.7315 28.0603C94.9212 28.0309 95.0699 27.9745 95.1875 27.9004L95.1879 27.9002C95.2483 27.8621 95.3016 27.821 95.3486 27.7768C95.1843 27.7961 95.0166 27.7876 94.8485 27.7546L94.8483 27.7546C94.5222 27.6906 94.2304 27.5443 94.0066 27.2973L94.0036 27.2939L94.0036 27.2939C93.7913 27.0554 93.6693 26.7616 93.6169 26.441C93.6169 26.4409 93.6169 26.4409 93.6169 26.4409L94.1104 26.3603L94.0938 28.0348ZM94.0938 28.0348C93.7344 27.9643 93.4313 27.8195 93.1743 27.6028C92.9388 27.3994 92.7586 27.1151 92.6479 26.7232C92.5454 26.3475 92.5393 25.854 92.6663 25.2214L92.6663 25.2212C92.7973 24.5682 93.0027 24.0921 93.2576 23.762L93.2582 23.7611C93.5285 23.4096 93.8168 23.1964 94.1182 23.087C94.4446 22.9701 94.7688 22.9456 95.0999 23.0106L94.0938 28.0348ZM96.5554 27.5137L96.1292 27.43C96.2671 27.3125 96.3858 27.1713 96.4869 27.0129L96.4873 27.0123C96.6635 26.7353 96.7816 26.4071 96.8547 26.0433L96.8548 26.0431C96.9284 25.676 96.9473 25.3251 96.8941 24.9993C96.8661 24.8171 96.8158 24.6434 96.7397 24.4829L97.1285 24.5592L97.2265 24.0712L97.3351 23.5305L98.2656 23.7131L97.1528 29.2519C97.1528 29.2519 97.1527 29.252 97.1527 29.252C97.0676 29.675 96.8976 29.9773 96.662 30.193L96.6618 30.1932C96.4143 30.4199 96.093 30.5776 95.6758 30.6528L95.6735 30.6532C95.2499 30.7317 94.7638 30.7235 94.2079 30.6145C93.6783 30.5105 93.2662 30.353 92.9558 30.1558C92.6355 29.9521 92.4242 29.729 92.2951 29.4946L92.2951 29.4946C92.2596 29.4301 92.2297 29.3652 92.2052 29.2998L93.069 29.4196C93.098 29.4841 93.1326 29.5463 93.1727 29.606L93.1727 29.6061L93.1761 29.611C93.3025 29.7945 93.4722 29.9366 93.6636 30.0451L93.6636 30.0451L93.6662 30.0466C93.865 30.1577 94.0907 30.2323 94.3328 30.2798L94.3328 30.2798C94.7346 30.3587 95.1288 30.3336 95.4865 30.1632C95.9311 29.956 96.1508 29.5259 96.244 29.0622C96.244 29.0621 96.244 29.0621 96.244 29.062L96.4564 28.0061L96.5554 27.5137ZM96.0189 23.6154C96.0577 23.6835 96.0899 23.7499 96.1162 23.8144L95.1 23.0106C95.3614 23.0619 95.5455 23.1451 95.674 23.2423L95.674 23.2424L95.6796 23.2465C95.8363 23.3617 95.9453 23.4853 96.0186 23.6148L96.0189 23.6154Z" fill="#0F172A" stroke="#0F172A"/>
<path d="M114.744 29.0252L114.744 29.0252L112.324 27.3845L108.236 33.2686L110.863 35.0488L110.863 35.0489C111.32 35.3591 111.735 35.5318 112.11 35.5938C112.496 35.6555 112.825 35.6187 113.109 35.5027C113.397 35.3835 113.639 35.1886 113.838 34.9028L113.838 34.9026C114.02 34.6403 114.104 34.3985 114.119 34.1726L114.12 34.1702C114.137 33.9211 114.094 33.6962 113.992 33.4859L113.991 33.4841L113.991 33.4841C113.887 33.2682 113.738 33.0859 113.535 32.9339L113.226 32.7021C113.314 32.8978 113.358 33.1074 113.351 33.327C113.343 33.619 113.241 33.8873 113.075 34.1255C112.833 34.4737 112.488 34.693 112.058 34.7226C111.634 34.7536 111.211 34.5715 110.818 34.3053L110.818 34.3052L109.804 33.618L109.385 33.3342L109.674 32.9188L110.784 31.321L111.066 30.9151L111.475 31.1924L112.519 31.8998L112.519 31.8999C112.773 32.0721 112.986 32.2785 113.134 32.5269C113.15 32.5523 113.164 32.578 113.178 32.6039L113.425 32.2489L113.47 32.1834L113.646 31.9298C113.521 31.937 113.396 31.9275 113.27 31.9029C113.014 31.8524 112.773 31.7435 112.548 31.5913L112.547 31.5911L111.639 30.9757L111.221 30.6919L111.509 30.2766L112.531 28.8065L112.813 28.4006L113.222 28.6778L114.157 29.3112L114.157 29.3113C114.494 29.5398 114.759 29.8364 114.873 30.2163L114.744 29.0252ZM114.744 29.0252C115.217 29.3454 115.537 29.6602 115.734 29.9618L115.735 29.9629M114.744 29.0252L115.735 29.9629M115.735 29.9629C115.938 30.2724 116.018 30.55 116.015 30.8037L116.015 30.8061M115.735 29.9629L116.015 30.8061M116.015 30.8061C116.013 31.0697 115.931 31.328 115.749 31.5894L115.749 31.5897M116.015 30.8061L115.749 31.5897M115.749 31.5897C115.613 31.7856 115.461 31.9183 115.294 32.004M115.749 31.5897L115.294 32.004M115.294 32.004C115.119 32.0932 114.932 32.1388 114.728 32.1404L115.294 32.004ZM114.07 32.0056L113.828 31.9068L114.07 32.0056Z" fill="#0F172A" stroke="#0F172A"/>
<path d="M120.691 37.691C120.917 37.7849 121.118 37.9252 121.293 38.1048L120.691 37.691ZM120.691 37.691C120.981 37.542 121.208 37.5075 121.388 37.5333L121.391 37.5337C121.598 37.562 121.775 37.6502 121.935 37.8144C121.945 37.8244 121.955 37.8347 121.964 37.8453L121.476 38.3099C121.415 38.2359 121.354 38.1674 121.293 38.105L120.691 37.691ZM120.476 36.4382L120.034 36.8589L119.667 37.2079L120.011 37.5599C119.891 37.5625 119.772 37.5782 119.653 37.6069L119.653 37.6069L119.65 37.6074C119.349 37.6815 119.084 37.8401 118.854 38.0586L118.854 38.0587L116.802 40.0105L116.134 39.3252L119.847 35.7931L120.476 36.4382Z" fill="#0F172A" stroke="#0F172A"/>
<path d="M119.699 47.0192L119.699 47.0194C119.925 47.3733 120.154 47.6076 120.374 47.7505L120.376 47.7512C120.613 47.9057 120.851 47.99 121.094 48.0155L121.099 48.0161L121.099 48.0161C121.364 48.0465 121.641 48.0288 121.933 47.9584L121.938 47.9573L121.938 47.9573L128.19 46.511L127.667 45.6941L123.704 46.9297L123.34 47.043L123.134 46.723L123.1 46.6694L122.888 46.3397L123.157 46.0549L125.985 43.069L125.465 42.2575L121.694 46.9224L121.575 47.0695L121.388 47.1011L121.193 47.134C120.949 47.1766 120.688 47.1576 120.451 47.0205C120.242 46.9033 120.088 46.7262 119.978 46.5262L119.699 47.0192ZM119.699 47.0192C119.589 46.8486 119.502 46.6825 119.434 46.5209L119.699 47.0192Z" fill="#0F172A" stroke="#0F172A"/>
<path d="M123.713 54.167L123.713 54.1674C123.71 54.5339 123.795 54.9658 123.988 55.4701L123.713 54.167ZM123.713 54.167C123.716 53.789 123.793 53.4928 123.924 53.2601L123.713 54.167ZM127.196 55.5454L127.183 55.9717C126.938 55.9645 126.701 55.9105 126.475 55.8142L126.753 55.7102L126.754 55.7129L127.196 55.5454ZM127.196 55.5454L127.222 55.5354L127.196 55.5452L127.196 55.5454ZM131.529 52.8744C131.552 52.6212 131.505 52.344 131.39 52.0428C131.236 51.6417 130.988 51.3064 130.646 51.0362L130.336 51.4288C130.336 51.429 130.336 51.4291 130.337 51.4293C130.083 51.231 129.748 51.0987 129.306 51.0549L129.305 51.0548C128.889 51.0127 128.375 51.0898 127.75 51.3229L127.75 51.3229C127.145 51.5487 126.73 51.8141 126.465 52.0989C126.191 52.3991 126.045 52.7011 125.998 53.0072C125.95 53.339 125.988 53.6718 126.119 54.0134L126.119 54.0138C126.21 54.2518 126.318 54.4318 126.435 54.566L126.436 54.5677C126.561 54.713 126.688 54.8095 126.815 54.8706C126.879 54.9015 126.941 54.9249 127.003 54.9415C126.901 54.8135 126.82 54.668 126.759 54.5091M131.529 52.8744L126.759 54.5091M131.529 52.8744C131.514 53.0733 131.471 53.2554 131.402 53.4207M131.529 52.8744L131.402 53.4207M126.759 54.5091C126.759 54.5091 126.76 54.5092 126.76 54.5092L127.226 54.3305L126.759 54.5089C126.641 54.1988 126.61 53.8735 126.701 53.5525L126.702 53.549L126.702 53.549C126.792 53.2421 126.978 52.9833 127.222 52.7699L127.222 52.7699C127.467 52.556 127.772 52.3896 128.118 52.2603C128.464 52.1312 128.802 52.0564 129.128 52.0513L129.131 52.0512L129.131 52.0512C129.462 52.048 129.778 52.1172 130.056 52.2833L130.057 52.2835C130.35 52.4587 130.552 52.7224 130.674 53.0391L126.759 54.5091ZM128.263 55.006L128.257 55.5059C128.586 55.5097 128.927 55.4369 129.275 55.3071L128.263 55.006ZM128.263 55.006L128.258 55.506C128.069 55.5041 127.887 55.4778 127.714 55.4231M128.263 55.006L127.714 55.4231M131.566 54.124L131.667 54.389L132.132 54.2158L131.957 53.7473L131.761 53.8224M131.566 54.124C131.637 54.0294 131.701 53.9287 131.761 53.8224M131.566 54.124L131.49 53.9261L131.761 53.8224M131.566 54.124C131.484 54.2336 131.394 54.3349 131.295 54.4271L130.995 54.1061L131.762 53.8199C131.762 53.8208 131.761 53.8216 131.761 53.8224M131.402 53.4207L131.216 53.4901L131.216 53.4901L130.799 53.6456L130.954 54.0615C130.954 54.0616 130.954 54.0618 130.953 54.0619L130.973 54.114L130.973 54.114L131.402 53.4207ZM130.393 53.901L130.366 53.9265L130.487 54.2408L130.507 54.293L130.542 54.3845C130.57 54.3409 130.595 54.2961 130.619 54.2499C130.631 54.2259 130.643 54.2015 130.654 54.1767C130.679 54.1194 130.701 54.0602 130.72 53.9991M130.393 53.901L130.719 54.0012C130.719 54.0005 130.719 53.9998 130.72 53.9991M130.393 53.901L130.395 53.8999M130.393 53.901L130.241 53.8541L130.395 53.8999M130.72 53.9991C130.735 53.9498 130.747 53.9004 130.756 53.851C130.778 53.7364 130.785 53.6216 130.778 53.5074C130.725 53.5801 130.67 53.6428 130.612 53.6967L130.395 53.8999M130.72 53.9991C130.72 53.9984 130.72 53.9977 130.72 53.9969L130.395 53.8999M127.714 55.4231L127.868 55.828L127.397 56.0038L126.387 56.3807L126.387 56.3808C125.943 56.546 125.462 56.5863 125.052 56.3191C124.717 56.106 124.487 55.7857 124.341 55.4035L124.34 55.403C124.252 55.1728 124.196 54.9415 124.185 54.7137L124.185 54.7126C124.175 54.491 124.206 54.2726 124.294 54.0694L124.297 54.0621L124.297 54.0621C124.327 53.997 124.361 53.9353 124.4 53.8772L124.042 53.0799C123.999 53.1354 123.96 53.1954 123.924 53.2599L127.714 55.4231ZM127.222 55.5354L127.198 55.4719C126.993 55.4659 126.793 55.4154 126.597 55.3206C126.565 55.3051 126.533 55.2884 126.502 55.2703L126.647 55.2161L127.047 55.0669L127.198 55.4708L127.198 55.4717L127.222 55.5354ZM129.856 54.4115L130.181 54.7919C130.182 54.7911 130.183 54.7903 130.184 54.7895C130.184 54.7887 130.185 54.7879 130.186 54.7871L129.856 54.4115ZM132.006 55.2734L126.711 57.2492L126.711 57.2492C126.307 57.4002 125.959 57.4156 125.65 57.3292C125.325 57.2385 125.02 57.0489 124.735 56.7347L124.733 56.733C124.442 56.4152 124.191 55.9987 123.988 55.4702L132.006 55.2734Z" fill="#0F172A" stroke="#0F172A"/>
<path d="M129.937 71.5594L130.436 71.5819C130.447 71.3462 130.512 71.1435 130.63 70.9628C130.755 70.774 130.915 70.6276 131.115 70.5189C131.306 70.4181 131.514 70.3708 131.751 70.3808C131.991 70.3916 132.193 70.4573 132.37 70.573C132.56 70.6984 132.704 70.8576 132.81 71.0556L132.81 71.0556L132.812 71.0594C132.915 71.2491 132.963 71.4558 132.953 71.6904C132.942 71.9292 132.875 72.1296 132.758 72.3047L132.758 72.3047L132.754 72.3106C132.631 72.4986 132.474 72.6428 132.275 72.7481L132.275 72.7481L132.269 72.7513C132.084 72.8531 131.877 72.9016 131.638 72.8913L131.616 73.3907L131.638 72.8913C131.403 72.8809 131.2 72.8149 131.02 72.6957L131.02 72.6957L131.016 72.6935C130.828 72.5711 130.682 72.4131 130.573 72.2135C130.473 72.0273 130.426 71.8205 130.436 71.5815L129.937 71.5594ZM129.937 71.5594C129.922 71.8836 129.988 72.1809 130.133 72.4511L130.879 70.0781C130.606 70.2261 130.383 70.4294 130.212 70.6883C130.043 70.9475 129.951 71.2379 129.937 71.5594Z" fill="#0F172A" stroke="#0F172A"/>
</g>
</svg>
